<?xml version="1.0"?>
<!-- Generated by SVGo -->
<svg width="1200" height="800"
     xmlns="http://www.w3.org/2000/svg"
     xmlns:xlink="http://www.w3.org/1999/xlink">
<rect x="0" y="0" width="1200" height="800" style="fill:white" />
<text x="600" y="30" style="text-anchor:middle;font-size:24px;font-family:Arial,sans-serif;font-weight:bold" >Dependency Size Treemap</text>
<rect x="10" y="50" width="527" height="316" style="fill:#3498db;stroke:white;stroke-width:2" />
<text x="273" y="203" style="text-anchor:middle;font-size:12px;font-family:Arial,sans-serif;fill:white" >go/types</text>
<text x="273" y="218" style="text-anchor:middle;font-size:10px;font-family:Arial,sans-serif;fill:white;opacity:0.9" >467.62 KB</text>
<rect x="10" y="366" width="527" height="290" style="fill:#34495e;stroke:white;stroke-width:2" />
<text x="273" y="506" style="text-anchor:middle;font-size:12px;font-family:Arial,sans-serif;fill:white" >runtime</text>
<text x="273" y="521" style="text-anchor:middle;font-size:10px;font-family:Arial,sans-serif;fill:white;opacity:0.9" >428.06 KB</text>
<rect x="537" y="50" width="174" height="372" style="fill:#d35400;stroke:white;stroke-width:2" />
<text x="624" y="231" style="text-anchor:middle;font-size:12px;font-family:Arial,sans-serif;fill:white" >golang.org/x/tools</text>
<text x="624" y="246" style="text-anchor:middle;font-size:10px;font-family:Arial,sans-serif;fill:white;opacity:0.9" >180.97 KB</text>
<rect x="537" y="422" width="174" height="234" style="fill:#d35400;stroke:white;stroke-width:2" />
<text x="624" y="534" style="text-anchor:middle;font-size:12px;font-family:Arial,sans-serif;fill:white" >math/big</text>
<text x="624" y="549" style="text-anchor:middle;font-size:10px;font-family:Arial,sans-serif;fill:white;opacity:0.9" >113.44 KB</text>
<rect x="10" y="656" width="285" height="134" style="fill:#d35400;stroke:white;stroke-width:2" />
<text x="152" y="718" style="text-anchor:middle;font-size:12px;font-family:Arial,sans-serif;fill:white" >go/parser</text>
<text x="152" y="733" style="text-anchor:middle;font-size:10px;font-family:Arial,sans-serif;fill:white;opacity:0.9" >107.47 KB</text>
<rect x="295" y="656" width="226" height="134" style="fill:#9b59b6;stroke:white;stroke-width:2" />
<text x="408" y="718" style="text-anchor:middle;font-size:12px;font-family:Arial,sans-serif;fill:white" >encoding/json</text>
<text x="408" y="733" style="text-anchor:middle;font-size:10px;font-family:Arial,sans-serif;fill:white;opacity:0.9" >84.62 KB</text>
<rect x="521" y="656" width="190" height="134" style="fill:#2980b9;stroke:white;stroke-width:2" />
<text x="616" y="718" style="text-anchor:middle;font-size:12px;font-family:Arial,sans-serif;fill:white" >time</text>
<text x="616" y="733" style="text-anchor:middle;font-size:10px;font-family:Arial,sans-serif;fill:white;opacity:0.9" >71.00 KB</text>
<rect x="711" y="50" width="182" height="127" style="fill:#f1c40f;stroke:white;stroke-width:2" />
<text x="802" y="108" style="text-anchor:middle;font-size:12px;font-family:Arial,sans-serif;fill:white" >slices</text>
<text x="802" y="123" style="text-anchor:middle;font-size:10px;font-family:Arial,sans-serif;fill:white;opacity:0.9" >64.91 KB</text>
<rect x="711" y="177" width="182" height="128" style="fill:#e67e22;stroke:white;stroke-width:2" />
<text x="802" y="236" style="text-anchor:middle;font-size:12px;font-family:Arial,sans-serif;fill:white" >reflect</text>
<text x="802" y="251" style="text-anchor:middle;font-size:10px;font-family:Arial,sans-serif;fill:white;opacity:0.9" >64.78 KB</text>
<rect x="711" y="305" width="182" height="123" style="fill:#34495e;stroke:white;stroke-width:2" />
<text x="802" y="361" style="text-anchor:middle;font-size:12px;font-family:Arial,sans-serif;fill:white" >regexp/syntax</text>
<text x="802" y="376" style="text-anchor:middle;font-size:10px;font-family:Arial,sans-serif;fill:white;opacity:0.9" >62.34 KB</text>
<rect x="711" y="428" width="182" height="120" style="fill:#27ae60;stroke:white;stroke-width:2" />
<text x="802" y="483" style="text-anchor:middle;font-size:12px;font-family:Arial,sans-serif;fill:white" >fmt</text>
<text x="802" y="498" style="text-anchor:middle;font-size:10px;font-family:Arial,sans-serif;fill:white;opacity:0.9" >60.69 KB</text>
<rect x="711" y="548" width="97" height="165" style="fill:#c0392b;stroke:white;stroke-width:2" />
<text x="759" y="625" style="text-anchor:middle;font-size:12px;font-family:Arial,sans-serif;fill:white" >internal/zstd</text>
<text x="759" y="640" style="text-anchor:middle;font-size:10px;font-family:Arial,sans-serif;fill:white;opacity:0.9" >44.72 KB</text>
<rect x="808" y="548" width="85" height="165" style="fill:#3498db;stroke:white;stroke-width:2" />
<text x="850" y="625" style="text-anchor:middle;font-size:12px;font-family:Arial,sans-serif;fill:white" >os</text>
<text x="850" y="640" style="text-anchor:middle;font-size:10px;font-family:Arial,sans-serif;fill:white;opacity:0.9" >39.06 KB</text>
<rect x="711" y="713" width="182" height="77" style="fill:#f39c12;stroke:white;stroke-width:2" />
<text x="802" y="746" style="text-anchor:middle;font-size:12px;font-family:Arial,sans-serif;fill:white" >strconv</text>
<text x="802" y="761" style="text-anchor:middle;font-size:10px;font-family:Arial,sans-serif;fill:white;opacity:0.9" >38.78 KB</text>
<rect x="893" y="50" width="134" height="81" style="fill:#e67e22;stroke:white;stroke-width:2" />
<text x="960" y="85" style="text-anchor:middle;font-size:12px;font-family:Arial,sans-serif;fill:white" >regexp</text>
<text x="960" y="100" style="text-anchor:middle;font-size:10px;font-family:Arial,sans-serif;fill:white;opacity:0.9" >30.69 KB</text>
<rect x="893" y="131" width="134" height="64" style="fill:#f1c40f;stroke:white;stroke-width:2" />
<text x="960" y="158" style="text-anchor:middle;font-size:12px;font-family:Arial,sans-serif;fill:white" >syscall</text>
<text x="960" y="173" style="text-anchor:middle;font-size:10px;font-family:Arial,sans-serif;fill:white;opacity:0.9" >23.91 KB</text>
<rect x="893" y="195" width="67" height="126" style="fill:#34495e;stroke:white;stroke-width:2" />
<text x="926" y="253" style="text-anchor:middle;font-size:12px;font-family:Arial,sans-serif;fill:white" >debug/elf</text>
<text x="926" y="268" style="text-anchor:middle;font-size:10px;font-family:Arial,sans-serif;fill:white;opacity:0.9" >23.72 KB</text>
<rect x="960" y="195" width="67" height="126" style="fill:#3498db;stroke:white;stroke-width:2" />
<text x="993" y="253" style="text-anchor:middle;font-size:12px;font-family:Arial,sans-serif;fill:white" >crypto...</text>
<text x="993" y="268" style="text-anchor:middle;font-size:10px;font-family:Arial,sans-serif;fill:white;opacity:0.9" >23.59 KB</text>
<rect x="893" y="321" width="68" height="121" style="fill:#8e44ad;stroke:white;stroke-width:2" />
<text x="927" y="376" style="text-anchor:middle;font-size:12px;font-family:Arial,sans-serif;fill:white" >go/con...</text>
<text x="927" y="391" style="text-anchor:middle;font-size:10px;font-family:Arial,sans-serif;fill:white;opacity:0.9" >23.25 KB</text>
<rect x="961" y="321" width="66" height="121" style="fill:#e74c3c;stroke:white;stroke-width:2" />
<text x="994" y="376" style="text-anchor:middle;font-size:12px;font-family:Arial,sans-serif;fill:white" >crypto...</text>
<text x="994" y="391" style="text-anchor:middle;font-size:10px;font-family:Arial,sans-serif;fill:white;opacity:0.9" >22.28 KB</text>
<rect x="893" y="442" width="134" height="60" style="fill:#9b59b6;stroke:white;stroke-width:2" />
<text x="960" y="467" style="text-anchor:middle;font-size:12px;font-family:Arial,sans-serif;fill:white" >go/ast</text>
<text x="960" y="482" style="text-anchor:middle;font-size:10px;font-family:Arial,sans-serif;fill:white;opacity:0.9" >22.16 KB</text>
<rect x="893" y="502" width="68" height="100" style="fill:#1abc9c;stroke:white;stroke-width:2" />
<text x="927" y="547" style="text-anchor:middle;font-size:12px;font-family:Arial,sans-serif;fill:white" >crypto...</text>
<text x="927" y="562" style="text-anchor:middle;font-size:10px;font-family:Arial,sans-serif;fill:white;opacity:0.9" >19.25 KB</text>
<rect x="961" y="502" width="66" height="100" style="fill:#d35400;stroke:white;stroke-width:2" />
<text x="994" y="547" style="text-anchor:middle;font-size:12px;font-family:Arial,sans-serif;fill:white" >debug/pe</text>
<text x="994" y="562" style="text-anchor:middle;font-size:10px;font-family:Arial,sans-serif;fill:white;opacity:0.9" >18.66 KB</text>
<rect x="893" y="602" width="134" height="49" style="fill:#f1c40f;stroke:white;stroke-width:2" />
<text x="960" y="621" style="text-anchor:middle;font-size:12px;font-family:Arial,sans-serif;fill:white" >strings</text>
<text x="960" y="636" style="text-anchor:middle;font-size:10px;font-family:Arial,sans-serif;fill:white;opacity:0.9" >18.06 KB</text>
<rect x="893" y="651" width="67" height="95" style="fill:#16a085;stroke:white;stroke-width:2" />
<text x="926" y="693" style="text-anchor:middle;font-size:12px;font-family:Arial,sans-serif;fill:white" >intern...</text>
<text x="926" y="708" style="text-anchor:middle;font-size:10px;font-family:Arial,sans-serif;fill:white;opacity:0.9" >18.00 KB</text>
<rect x="960" y="651" width="67" height="95" style="fill:#c0392b;stroke:white;stroke-width:2" />
<text x="993" y="693" style="text-anchor:middle;font-size:12px;font-family:Arial,sans-serif;fill:white" >compre...</text>
<text x="993" y="708" style="text-anchor:middle;font-size:10px;font-family:Arial,sans-serif;fill:white;opacity:0.9" >17.72 KB</text>
<rect x="893" y="746" width="134" height="44" style="fill:#e74c3c;stroke:white;stroke-width:2" />
<text x="960" y="763" style="text-anchor:middle;font-size:12px;font-family:Arial,sans-serif;fill:white" >debug/gosym</text>
<rect x="1027" y="50" width="60" height="93" style="fill:#9b59b6;stroke:white;stroke-width:2" />
<text x="1057" y="91" style="text-anchor:middle;font-size:12px;font-family:Arial,sans-serif;fill:white" >os/exec</text>
<text x="1057" y="106" style="text-anchor:middle;font-size:10px;font-family:Arial,sans-serif;fill:white;opacity:0.9" >15.84 KB</text>
<rect x="1087" y="50" width="60" height="93" style="fill:#e67e22;stroke:white;stroke-width:2" />
<text x="1117" y="91" style="text-anchor:middle;font-size:12px;font-family:Arial,sans-serif;fill:white" >debug...</text>
<text x="1117" y="106" style="text-anchor:middle;font-size:10px;font-family:Arial,sans-serif;fill:white;opacity:0.9" >15.81 KB</text>
<rect x="1027" y="143" width="62" height="89" style="fill:#16a085;stroke:white;stroke-width:2" />
<text x="1058" y="182" style="text-anchor:middle;font-size:12px;font-family:Arial,sans-serif;fill:white" >unicode</text>
<text x="1058" y="197" style="text-anchor:middle;font-size:10px;font-family:Arial,sans-serif;fill:white;opacity:0.9" >15.53 KB</text>
<rect x="1089" y="143" width="58" height="89" style="fill:#2ecc71;stroke:white;stroke-width:2" />
<text x="1118" y="182" style="text-anchor:middle;font-size:12px;font-family:Arial,sans-serif;fill:white" >go/sc...</text>
<text x="1118" y="197" style="text-anchor:middle;font-size:10px;font-family:Arial,sans-serif;fill:white;opacity:0.9" >14.12 KB</text>
<rect x="1027" y="232" width="82" height="59" style="fill:#16a085;stroke:white;stroke-width:2" />
<text x="1068" y="256" style="text-anchor:middle;font-size:12px;font-family:Arial,sans-serif;fill:white" >crypto/in...</text>
<text x="1068" y="271" style="text-anchor:middle;font-size:10px;font-family:Arial,sans-serif;fill:white;opacity:0.9" >13.62 KB</text>
<rect x="1027" y="291" width="82" height="58" style="fill:#1abc9c;stroke:white;stroke-width:2" />
<text x="1068" y="315" style="text-anchor:middle;font-size:12px;font-family:Arial,sans-serif;fill:white" >internal/...</text>
<text x="1068" y="330" style="text-anchor:middle;font-size:10px;font-family:Arial,sans-serif;fill:white;opacity:0.9" >13.03 KB</text>
<rect x="1109" y="232" width="38" height="117" style="fill:#27ae60;stroke:white;stroke-width:2" />
<rect x="1027" y="349" width="82" height="52" style="fill:#2ecc71;stroke:white;stroke-width:2" />
<text x="1068" y="370" style="text-anchor:middle;font-size:12px;font-family:Arial,sans-serif;fill:white" >internal/...</text>
<text x="1068" y="385" style="text-anchor:middle;font-size:10px;font-family:Arial,sans-serif;fill:white;opacity:0.9" >11.97 KB</text>
<rect x="1027" y="401" width="82" height="52" style="fill:#27ae60;stroke:white;stroke-width:2" />
<text x="1068" y="422" style="text-anchor:middle;font-size:12px;font-family:Arial,sans-serif;fill:white" >internal/...</text>
<text x="1068" y="437" style="text-anchor:middle;font-size:10px;font-family:Arial,sans-serif;fill:white;opacity:0.9" >11.88 KB</text>
<rect x="1109" y="349" width="38" height="104" style="fill:#1abc9c;stroke:white;stroke-width:2" />
<rect x="1027" y="453" width="41" height="81" style="fill:#e67e22;stroke:white;stroke-width:2" />
<rect x="1068" y="453" width="41" height="81" style="fill:#34495e;stroke:white;stroke-width:2" />
<rect x="1109" y="453" width="38" height="81" style="fill:#2980b9;stroke:white;stroke-width:2" />
<rect x="1027" y="534" width="60" height="45" style="fill:#16a085;stroke:white;stroke-width:2" />
<text x="1057" y="551" style="text-anchor:middle;font-size:12px;font-family:Arial,sans-serif;fill:white" >inter...</text>
<text x="1057" y="566" style="text-anchor:middle;font-size:10px;font-family:Arial,sans-serif;fill:white;opacity:0.9" >7.75 KB</text>
<rect x="1027" y="579" width="60" height="46" style="fill:#f39c12;stroke:white;stroke-width:2" />
<text x="1057" y="597" style="text-anchor:middle;font-size:12px;font-family:Arial,sans-serif;fill:white" >debug...</text>
<text x="1057" y="612" style="text-anchor:middle;font-size:10px;font-family:Arial,sans-serif;fill:white;opacity:0.9" >7.66 KB</text>
<rect x="1087" y="534" width="60" height="46" style="fill:#2980b9;stroke:white;stroke-width:2" />
<text x="1117" y="552" style="text-anchor:middle;font-size:12px;font-family:Arial,sans-serif;fill:white" >bytes</text>
<text x="1117" y="567" style="text-anchor:middle;font-size:10px;font-family:Arial,sans-serif;fill:white;opacity:0.9" >7.66 KB</text>
<rect x="1087" y="580" width="60" height="45" style="fill:#16a085;stroke:white;stroke-width:2" />
<text x="1117" y="597" style="text-anchor:middle;font-size:12px;font-family:Arial,sans-serif;fill:white" >context</text>
<text x="1117" y="612" style="text-anchor:middle;font-size:10px;font-family:Arial,sans-serif;fill:white;opacity:0.9" >7.41 KB</text>
<rect x="1027" y="625" width="41" height="63" style="fill:#e67e22;stroke:white;stroke-width:2" />
<rect x="1068" y="625" width="40" height="63" style="fill:#2ecc71;stroke:white;stroke-width:2" />
<rect x="1108" y="625" width="39" height="63" style="fill:#34495e;stroke:white;stroke-width:2" />
<rect x="1027" y="688" width="65" height="36" style="fill:#16a085;stroke:white;stroke-width:2" />
<text x="1059" y="701" style="text-anchor:middle;font-size:10px;font-family:Arial,sans-serif;fill:white" >bufio</text>
<rect x="1027" y="724" width="65" height="33" style="fill:#8e44ad;stroke:white;stroke-width:2" />
<text x="1059" y="735" style="text-anchor:middle;font-size:10px;font-family:Arial,sans-serif;fill:white" >sync</text>
<rect x="1027" y="757" width="65" height="33" style="fill:#e67e22;stroke:white;stroke-width:2" />
<text x="1059" y="768" style="text-anchor:middle;font-size:10px;font-family:Arial,sans-serif;fill:white" >other</text>
<rect x="1092" y="688" width="55" height="34" style="fill:#f1c40f;stroke:white;stroke-width:2" />
<text x="1119" y="700" style="text-anchor:middle;font-size:10px;font-family:Arial,sans-serif;fill:white" >runtim...</text>
<rect x="1092" y="722" width="55" height="34" style="fill:#e67e22;stroke:white;stroke-width:2" />
<text x="1119" y="734" style="text-anchor:middle;font-size:10px;font-family:Arial,sans-serif;fill:white" >io</text>
<rect x="1092" y="756" width="55" height="34" style="fill:#d35400;stroke:white;stroke-width:2" />
<text x="1119" y="768" style="text-anchor:middle;font-size:10px;font-family:Arial,sans-serif;fill:white" >intern...</text>
<rect x="1147" y="50" width="43" height="42" style="fill:#2980b9;stroke:white;stroke-width:2" />
<rect x="1147" y="92" width="43" height="41" style="fill:#9b59b6;stroke:white;stroke-width:2" />
<rect x="1147" y="133" width="43" height="38" style="fill:#34495e;stroke:white;stroke-width:2" />
<rect x="1147" y="171" width="43" height="36" style="fill:#c0392b;stroke:white;stroke-width:2" />
<rect x="1147" y="207" width="43" height="31" style="fill:#2ecc71;stroke:white;stroke-width:2" />
<rect x="1147" y="238" width="43" height="32" style="fill:#e67e22;stroke:white;stroke-width:2" />
<rect x="1147" y="270" width="43" height="27" style="fill:#e67e22;stroke:white;stroke-width:2" />
<rect x="1147" y="297" width="43" height="26" style="fill:#8e44ad;stroke:white;stroke-width:2" />
<rect x="1147" y="323" width="43" height="25" style="fill:#16a085;stroke:white;stroke-width:2" />
<rect x="1147" y="348" width="43" height="26" style="fill:#9b59b6;stroke:white;stroke-width:2" />
<rect x="1147" y="374" width="43" height="24" style="fill:#c0392b;stroke:white;stroke-width:2" />
<rect x="1147" y="398" width="43" height="24" style="fill:#c0392b;stroke:white;stroke-width:2" />
<rect x="1147" y="422" width="43" height="23" style="fill:#16a085;stroke:white;stroke-width:2" />
<rect x="1147" y="445" width="21" height="42" style="fill:#f1c40f;stroke:white;stroke-width:2" />
<rect x="1168" y="445" width="22" height="42" style="fill:#c0392b;stroke:white;stroke-width:2" />
<rect x="1147" y="487" width="22" height="42" style="fill:#2980b9;stroke:white;stroke-width:2" />
<rect x="1169" y="487" width="21" height="42" style="fill:#f39c12;stroke:white;stroke-width:2" />
<rect x="1147" y="529" width="21" height="38" style="fill:#9b59b6;stroke:white;stroke-width:2" />
<rect x="1168" y="529" width="22" height="38" style="fill:#2ecc71;stroke:white;stroke-width:2" />
<rect x="1147" y="567" width="43" height="18" style="fill:#1abc9c;stroke:white;stroke-width:2" />
<rect x="1147" y="585" width="21" height="34" style="fill:#c0392b;stroke:white;stroke-width:2" />
<rect x="1168" y="585" width="22" height="34" style="fill:#c0392b;stroke:white;stroke-width:2" />
<rect x="1147" y="619" width="43" height="16" style="fill:#f1c40f;stroke:white;stroke-width:2" />
<rect x="1147" y="635" width="30" height="20" style="fill:#e74c3c;stroke:white;stroke-width:2" />
<rect x="1147" y="655" width="30" height="21" style="fill:#27ae60;stroke:white;stroke-width:2" />
<rect x="1177" y="635" width="13" height="41" style="fill:#e74c3c;stroke:white;stroke-width:2" />
<rect x="1147" y="676" width="23" height="19" style="fill:#e67e22;stroke:white;stroke-width:2" />
<rect x="1147" y="695" width="23" height="16" style="fill:#e67e22;stroke:white;stroke-width:2" />
<rect x="1170" y="676" width="20" height="17" style="fill:#2ecc71;stroke:white;stroke-width:2" />
<rect x="1170" y="693" width="20" height="18" style="fill:#16a085;stroke:white;stroke-width:2" />
<rect x="1147" y="711" width="15" height="21" style="fill:#1abc9c;stroke:white;stroke-width:2" />
<rect x="1162" y="711" width="14" height="21" style="fill:#9b59b6;stroke:white;stroke-width:2" />
<rect x="1176" y="711" width="14" height="21" style="fill:#16a085;stroke:white;stroke-width:2" />
<rect x="1147" y="732" width="12" height="22" style="fill:#3498db;stroke:white;stroke-width:2" />
<rect x="1159" y="732" width="11" height="22" style="fill:#3498db;stroke:white;stroke-width:2" />
<rect x="1147" y="754" width="23" height="10" style="fill:#1abc9c;stroke:white;stroke-width:2" />
<rect x="1170" y="732" width="20" height="10" style="fill:#e74c3c;stroke:white;stroke-width:2" />
<rect x="1170" y="742" width="20" height="11" style="fill:#34495e;stroke:white;stroke-width:2" />
<rect x="1170" y="753" width="20" height="11" style="fill:#f1c40f;stroke:white;stroke-width:2" />
<rect x="1147" y="764" width="12" height="14" style="fill:#f39c12;stroke:white;stroke-width:2" />
<rect x="1159" y="764" width="12" height="14" style="fill:#d35400;stroke:white;stroke-width:2" />
<rect x="1147" y="778" width="14" height="12" style="fill:#3498db;stroke:white;stroke-width:2" />
<rect x="1161" y="778" width="10" height="12" style="fill:#c0392b;stroke:white;stroke-width:2" />
<rect x="1171" y="764" width="10" height="9" style="fill:#1abc9c;stroke:white;stroke-width:2" />
<rect x="1171" y="773" width="10" height="8" style="fill:#c0392b;stroke:white;stroke-width:2" />
<rect x="1171" y="781" width="10" height="9" style="fill:#27ae60;stroke:white;stroke-width:2" />
<rect x="1181" y="764" width="9" height="5" style="fill:#f1c40f;stroke:white;stroke-width:2" />
<rect x="1181" y="769" width="9" height="5" style="fill:#e67e22;stroke:white;stroke-width:2" />
<rect x="1181" y="774" width="9" height="5" style="fill:#3498db;stroke:white;stroke-width:2" />
<rect x="1181" y="779" width="4" height="8" style="fill:#f1c40f;stroke:white;stroke-width:2" />
<rect x="1185" y="779" width="5" height="8" style="fill:#16a085;stroke:white;stroke-width:2" />
<rect x="1181" y="787" width="9" height="3" style="fill:#2980b9;stroke:white;stroke-width:2" />
</svg>
