<?xml version="1.0"?>
<!-- Generated by SVGo -->
<svg width="1200" height="800"
     xmlns="http://www.w3.org/2000/svg"
     xmlns:xlink="http://www.w3.org/1999/xlink">
<rect x="0" y="0" width="1200" height="800" style="fill:white" />
<text x="600" y="30" style="text-anchor:middle;font-size:24px;font-family:Arial,sans-serif;font-weight:bold" >/usr/bin/kubectl - 25.75 MB</text>
<rect x="10" y="50" width="472" height="602" style="fill:#3498db;stroke:white;stroke-width:2" />
<text x="246" y="346" style="text-anchor:middle;font-size:12px;font-family:Arial,sans-serif;fill:white" >k8s.io/api</text>
<text x="246" y="361" style="text-anchor:middle;font-size:10px;font-family:Arial,sans-serif;fill:white;opacity:0.9" >8.42 MB</text>
<rect x="482" y="50" width="249" height="602" style="fill:#16a085;stroke:white;stroke-width:2" />
<text x="606" y="346" style="text-anchor:middle;font-size:12px;font-family:Arial,sans-serif;fill:white" >k8s.io/client-go</text>
<text x="606" y="361" style="text-anchor:middle;font-size:10px;font-family:Arial,sans-serif;fill:white;opacity:0.9" >4.42 MB</text>
<rect x="10" y="652" width="454" height="138" style="fill:#9b59b6;stroke:white;stroke-width:2" />
<text x="237" y="716" style="text-anchor:middle;font-size:12px;font-family:Arial,sans-serif;fill:white" >k8s.io/kubectl</text>
<text x="237" y="731" style="text-anchor:middle;font-size:10px;font-family:Arial,sans-serif;fill:white;opacity:0.9" >1.85 MB</text>
<rect x="464" y="652" width="267" height="138" style="fill:#e67e22;stroke:white;stroke-width:2" />
<text x="597" y="716" style="text-anchor:middle;font-size:12px;font-family:Arial,sans-serif;fill:white" >k8s.io/apimachinery</text>
<text x="597" y="731" style="text-anchor:middle;font-size:10px;font-family:Arial,sans-serif;fill:white;opacity:0.9" >1.08 MB</text>
<rect x="731" y="50" width="121" height="250" style="fill:#e74c3c;stroke:white;stroke-width:2" />
<text x="791" y="170" style="text-anchor:middle;font-size:12px;font-family:Arial,sans-serif;fill:white" >github.com/goog...</text>
<text x="791" y="185" style="text-anchor:middle;font-size:10px;font-family:Arial,sans-serif;fill:white;opacity:0.9" >920.47 KB</text>
<rect x="731" y="300" width="121" height="216" style="fill:#f39c12;stroke:white;stroke-width:2" />
<text x="791" y="403" style="text-anchor:middle;font-size:12px;font-family:Arial,sans-serif;fill:white" >google.golang.o...</text>
<text x="791" y="418" style="text-anchor:middle;font-size:10px;font-family:Arial,sans-serif;fill:white;opacity:0.9" >789.28 KB</text>
<rect x="731" y="516" width="121" height="140" style="fill:#27ae60;stroke:white;stroke-width:2" />
<text x="791" y="581" style="text-anchor:middle;font-size:12px;font-family:Arial,sans-serif;fill:white" >net/http</text>
<text x="791" y="596" style="text-anchor:middle;font-size:10px;font-family:Arial,sans-serif;fill:white;opacity:0.9" >513.34 KB</text>
<rect x="731" y="656" width="121" height="134" style="fill:#9b59b6;stroke:white;stroke-width:2" />
<text x="791" y="718" style="text-anchor:middle;font-size:12px;font-family:Arial,sans-serif;fill:white" >k8s.io/kube-ope...</text>
<text x="791" y="733" style="text-anchor:middle;font-size:10px;font-family:Arial,sans-serif;fill:white;opacity:0.9" >488.34 KB</text>
<rect x="852" y="50" width="109" height="137" style="fill:#34495e;stroke:white;stroke-width:2" />
<text x="906" y="113" style="text-anchor:middle;font-size:12px;font-family:Arial,sans-serif;fill:white" >runtime</text>
<text x="906" y="128" style="text-anchor:middle;font-size:10px;font-family:Arial,sans-serif;fill:white;opacity:0.9" >451.69 KB</text>
<rect x="852" y="187" width="109" height="104" style="fill:#c0392b;stroke:white;stroke-width:2" />
<text x="906" y="234" style="text-anchor:middle;font-size:12px;font-family:Arial,sans-serif;fill:white" >crypto/tls</text>
<text x="906" y="249" style="text-anchor:middle;font-size:10px;font-family:Arial,sans-serif;fill:white;opacity:0.9" >340.53 KB</text>
<rect x="852" y="291" width="109" height="104" style="fill:#3498db;stroke:white;stroke-width:2" />
<text x="906" y="338" style="text-anchor:middle;font-size:12px;font-family:Arial,sans-serif;fill:white" >sigs.k8s.io/k...</text>
<text x="906" y="353" style="text-anchor:middle;font-size:10px;font-family:Arial,sans-serif;fill:white;opacity:0.9" >340.28 KB</text>
<rect x="852" y="395" width="109" height="89" style="fill:#34495e;stroke:white;stroke-width:2" />
<text x="906" y="434" style="text-anchor:middle;font-size:12px;font-family:Arial,sans-serif;fill:white" >github.com/go...</text>
<text x="906" y="449" style="text-anchor:middle;font-size:10px;font-family:Arial,sans-serif;fill:white;opacity:0.9" >289.44 KB</text>
<rect x="852" y="484" width="109" height="84" style="fill:#f1c40f;stroke:white;stroke-width:2" />
<text x="906" y="521" style="text-anchor:middle;font-size:12px;font-family:Arial,sans-serif;fill:white" >sigs.k8s.io/k...</text>
<text x="906" y="536" style="text-anchor:middle;font-size:10px;font-family:Arial,sans-serif;fill:white;opacity:0.9" >275.56 KB</text>
<rect x="852" y="568" width="109" height="81" style="fill:#2ecc71;stroke:white;stroke-width:2" />
<text x="906" y="603" style="text-anchor:middle;font-size:12px;font-family:Arial,sans-serif;fill:white" >golang.org/x/net</text>
<text x="906" y="618" style="text-anchor:middle;font-size:10px;font-family:Arial,sans-serif;fill:white;opacity:0.9" >264.84 KB</text>
<rect x="852" y="649" width="109" height="76" style="fill:#e67e22;stroke:white;stroke-width:2" />
<text x="906" y="682" style="text-anchor:middle;font-size:12px;font-family:Arial,sans-serif;fill:white" >other</text>
<text x="906" y="697" style="text-anchor:middle;font-size:10px;font-family:Arial,sans-serif;fill:white;opacity:0.9" >248.30 KB</text>
<rect x="852" y="725" width="109" height="65" style="fill:#1abc9c;stroke:white;stroke-width:2" />
<text x="906" y="752" style="text-anchor:middle;font-size:12px;font-family:Arial,sans-serif;fill:white" >github.com/js...</text>
<text x="906" y="767" style="text-anchor:middle;font-size:10px;font-family:Arial,sans-serif;fill:white;opacity:0.9" >209.12 KB</text>
<rect x="961" y="50" width="92" height="74" style="fill:#27ae60;stroke:white;stroke-width:2" />
<text x="1007" y="82" style="text-anchor:middle;font-size:12px;font-family:Arial,sans-serif;fill:white" >net</text>
<text x="1007" y="97" style="text-anchor:middle;font-size:10px;font-family:Arial,sans-serif;fill:white;opacity:0.9" >206.84 KB</text>
<rect x="961" y="124" width="92" height="61" style="fill:#f1c40f;stroke:white;stroke-width:2" />
<text x="1007" y="149" style="text-anchor:middle;font-size:12px;font-family:Arial,sans-serif;fill:white" >slices</text>
<text x="1007" y="164" style="text-anchor:middle;font-size:10px;font-family:Arial,sans-serif;fill:white;opacity:0.9" >168.59 KB</text>
<rect x="961" y="185" width="92" height="58" style="fill:#f39c12;stroke:white;stroke-width:2" />
<text x="1007" y="209" style="text-anchor:middle;font-size:12px;font-family:Arial,sans-serif;fill:white" >github.com...</text>
<text x="1007" y="224" style="text-anchor:middle;font-size:10px;font-family:Arial,sans-serif;fill:white;opacity:0.9" >160.84 KB</text>
<rect x="961" y="243" width="92" height="58" style="fill:#e67e22;stroke:white;stroke-width:2" />
<text x="1007" y="267" style="text-anchor:middle;font-size:12px;font-family:Arial,sans-serif;fill:white" >reflect</text>
<text x="1007" y="282" style="text-anchor:middle;font-size:10px;font-family:Arial,sans-serif;fill:white;opacity:0.9" >160.75 KB</text>
<rect x="961" y="301" width="92" height="57" style="fill:#e67e22;stroke:white;stroke-width:2" />
<text x="1007" y="324" style="text-anchor:middle;font-size:12px;font-family:Arial,sans-serif;fill:white" >github.com...</text>
<text x="1007" y="339" style="text-anchor:middle;font-size:10px;font-family:Arial,sans-serif;fill:white;opacity:0.9" >159.28 KB</text>
<rect x="961" y="358" width="92" height="57" style="fill:#3498db;stroke:white;stroke-width:2" />
<text x="1007" y="381" style="text-anchor:middle;font-size:12px;font-family:Arial,sans-serif;fill:white" >k8s.io/cli...</text>
<text x="1007" y="396" style="text-anchor:middle;font-size:10px;font-family:Arial,sans-serif;fill:white;opacity:0.9" >157.25 KB</text>
<rect x="961" y="415" width="92" height="55" style="fill:#2ecc71;stroke:white;stroke-width:2" />
<text x="1007" y="437" style="text-anchor:middle;font-size:12px;font-family:Arial,sans-serif;fill:white" >k8s.io/met...</text>
<text x="1007" y="452" style="text-anchor:middle;font-size:10px;font-family:Arial,sans-serif;fill:white;opacity:0.9" >152.66 KB</text>
<rect x="961" y="470" width="92" height="55" style="fill:#d35400;stroke:white;stroke-width:2" />
<text x="1007" y="492" style="text-anchor:middle;font-size:12px;font-family:Arial,sans-serif;fill:white" >math/big</text>
<text x="1007" y="507" style="text-anchor:middle;font-size:10px;font-family:Arial,sans-serif;fill:white;opacity:0.9" >151.00 KB</text>
<rect x="961" y="525" width="50" height="88" style="fill:#9b59b6;stroke:white;stroke-width:2" />
<text x="986" y="564" style="text-anchor:middle;font-size:12px;font-family:Arial,sans-serif;fill:white" >sig...</text>
<text x="986" y="579" style="text-anchor:middle;font-size:10px;font-family:Arial,sans-serif;fill:white;opacity:0.9" >133.75 KB</text>
<rect x="1011" y="525" width="42" height="88" style="fill:#8e44ad;stroke:white;stroke-width:2" />
<rect x="961" y="613" width="46" height="77" style="fill:#16a085;stroke:white;stroke-width:2" />
<rect x="1007" y="613" width="46" height="77" style="fill:#27ae60;stroke:white;stroke-width:2" />
<rect x="961" y="690" width="46" height="67" style="fill:#9b59b6;stroke:white;stroke-width:2" />
<rect x="1007" y="690" width="46" height="67" style="fill:#34495e;stroke:white;stroke-width:2" />
<rect x="961" y="757" width="92" height="33" style="fill:#2980b9;stroke:white;stroke-width:2" />
<text x="1007" y="768" style="text-anchor:middle;font-size:10px;font-family:Arial,sans-serif;fill:white" >time</text>
<rect x="1053" y="50" width="36" height="72" style="fill:#16a085;stroke:white;stroke-width:2" />
<rect x="1089" y="50" width="37" height="72" style="fill:#f1c40f;stroke:white;stroke-width:2" />
<rect x="1053" y="122" width="36" height="65" style="fill:#1abc9c;stroke:white;stroke-width:2" />
<rect x="1089" y="122" width="37" height="65" style="fill:#d35400;stroke:white;stroke-width:2" />
<rect x="1053" y="187" width="37" height="62" style="fill:#f1c40f;stroke:white;stroke-width:2" />
<rect x="1090" y="187" width="36" height="62" style="fill:#34495e;stroke:white;stroke-width:2" />
<rect x="1053" y="249" width="37" height="59" style="fill:#2980b9;stroke:white;stroke-width:2" />
<rect x="1090" y="249" width="36" height="59" style="fill:#34495e;stroke:white;stroke-width:2" />
<rect x="1053" y="308" width="36" height="56" style="fill:#27ae60;stroke:white;stroke-width:2" />
<rect x="1089" y="308" width="37" height="56" style="fill:#e74c3c;stroke:white;stroke-width:2" />
<rect x="1053" y="364" width="37" height="51" style="fill:#2980b9;stroke:white;stroke-width:2" />
<rect x="1090" y="364" width="36" height="51" style="fill:#e74c3c;stroke:white;stroke-width:2" />
<rect x="1053" y="415" width="49" height="36" style="fill:#2ecc71;stroke:white;stroke-width:2" />
<rect x="1053" y="451" width="49" height="37" style="fill:#3498db;stroke:white;stroke-width:2" />
<rect x="1102" y="415" width="24" height="73" style="fill:#e67e22;stroke:white;stroke-width:2" />
<rect x="1053" y="488" width="37" height="43" style="fill:#2980b9;stroke:white;stroke-width:2" />
<rect x="1090" y="488" width="36" height="43" style="fill:#f39c12;stroke:white;stroke-width:2" />
<rect x="1053" y="531" width="36" height="43" style="fill:#2ecc71;stroke:white;stroke-width:2" />
<rect x="1089" y="531" width="37" height="43" style="fill:#34495e;stroke:white;stroke-width:2" />
<rect x="1053" y="574" width="36" height="42" style="fill:#16a085;stroke:white;stroke-width:2" />
<rect x="1089" y="574" width="37" height="42" style="fill:#2980b9;stroke:white;stroke-width:2" />
<rect x="1053" y="616" width="36" height="41" style="fill:#e74c3c;stroke:white;stroke-width:2" />
<rect x="1089" y="616" width="37" height="41" style="fill:#f1c40f;stroke:white;stroke-width:2" />
<rect x="1053" y="657" width="37" height="38" style="fill:#2ecc71;stroke:white;stroke-width:2" />
<rect x="1090" y="657" width="36" height="38" style="fill:#d35400;stroke:white;stroke-width:2" />
<rect x="1053" y="695" width="36" height="39" style="fill:#16a085;stroke:white;stroke-width:2" />
<rect x="1089" y="695" width="37" height="39" style="fill:#f39c12;stroke:white;stroke-width:2" />
<rect x="1053" y="734" width="49" height="28" style="fill:#8e44ad;stroke:white;stroke-width:2" />
<rect x="1053" y="762" width="49" height="28" style="fill:#c0392b;stroke:white;stroke-width:2" />
<rect x="1102" y="734" width="24" height="56" style="fill:#f39c12;stroke:white;stroke-width:2" />
<rect x="1126" y="50" width="25" height="48" style="fill:#c0392b;stroke:white;stroke-width:2" />
<rect x="1151" y="50" width="24" height="48" style="fill:#f39c12;stroke:white;stroke-width:2" />
<rect x="1126" y="98" width="24" height="45" style="fill:#e67e22;stroke:white;stroke-width:2" />
<rect x="1150" y="98" width="25" height="45" style="fill:#f1c40f;stroke:white;stroke-width:2" />
<rect x="1126" y="143" width="24" height="44" style="fill:#1abc9c;stroke:white;stroke-width:2" />
<rect x="1150" y="143" width="25" height="44" style="fill:#3498db;stroke:white;stroke-width:2" />
<rect x="1126" y="187" width="24" height="38" style="fill:#27ae60;stroke:white;stroke-width:2" />
<rect x="1150" y="187" width="25" height="38" style="fill:#16a085;stroke:white;stroke-width:2" />
<rect x="1126" y="225" width="24" height="35" style="fill:#2ecc71;stroke:white;stroke-width:2" />
<rect x="1150" y="225" width="25" height="35" style="fill:#1abc9c;stroke:white;stroke-width:2" />
<rect x="1126" y="260" width="24" height="35" style="fill:#3498db;stroke:white;stroke-width:2" />
<rect x="1150" y="260" width="25" height="35" style="fill:#9b59b6;stroke:white;stroke-width:2" />
<rect x="1126" y="295" width="24" height="34" style="fill:#16a085;stroke:white;stroke-width:2" />
<rect x="1150" y="295" width="25" height="34" style="fill:#e74c3c;stroke:white;stroke-width:2" />
<rect x="1126" y="329" width="49" height="17" style="fill:#2ecc71;stroke:white;stroke-width:2" />
<rect x="1126" y="346" width="25" height="30" style="fill:#d35400;stroke:white;stroke-width:2" />
<rect x="1151" y="346" width="24" height="30" style="fill:#8e44ad;stroke:white;stroke-width:2" />
<rect x="1126" y="376" width="24" height="29" style="fill:#9b59b6;stroke:white;stroke-width:2" />
<rect x="1150" y="376" width="25" height="29" style="fill:#2980b9;stroke:white;stroke-width:2" />
<rect x="1126" y="405" width="24" height="28" style="fill:#1abc9c;stroke:white;stroke-width:2" />
<rect x="1150" y="405" width="25" height="28" style="fill:#27ae60;stroke:white;stroke-width:2" />
<rect x="1126" y="433" width="24" height="28" style="fill:#2980b9;stroke:white;stroke-width:2" />
<rect x="1150" y="433" width="25" height="28" style="fill:#8e44ad;stroke:white;stroke-width:2" />
<rect x="1126" y="461" width="24" height="26" style="fill:#f1c40f;stroke:white;stroke-width:2" />
<rect x="1150" y="461" width="25" height="26" style="fill:#1abc9c;stroke:white;stroke-width:2" />
<rect x="1126" y="487" width="24" height="26" style="fill:#9b59b6;stroke:white;stroke-width:2" />
<rect x="1150" y="487" width="25" height="26" style="fill:#16a085;stroke:white;stroke-width:2" />
<rect x="1126" y="513" width="32" height="18" style="fill:#16a085;stroke:white;stroke-width:2" />
<rect x="1126" y="531" width="32" height="18" style="fill:#1abc9c;stroke:white;stroke-width:2" />
<rect x="1158" y="513" width="17" height="36" style="fill:#1abc9c;stroke:white;stroke-width:2" />
<rect x="1126" y="549" width="25" height="21" style="fill:#d35400;stroke:white;stroke-width:2" />
<rect x="1126" y="570" width="25" height="22" style="fill:#2ecc71;stroke:white;stroke-width:2" />
<rect x="1151" y="549" width="24" height="21" style="fill:#16a085;stroke:white;stroke-width:2" />
<rect x="1151" y="570" width="24" height="22" style="fill:#e67e22;stroke:white;stroke-width:2" />
<rect x="1126" y="592" width="24" height="19" style="fill:#16a085;stroke:white;stroke-width:2" />
<rect x="1126" y="611" width="24" height="20" style="fill:#16a085;stroke:white;stroke-width:2" />
<rect x="1150" y="592" width="25" height="19" style="fill:#16a085;stroke:white;stroke-width:2" />
<rect x="1150" y="611" width="25" height="20" style="fill:#c0392b;stroke:white;stroke-width:2" />
<rect x="1126" y="631" width="25" height="17" style="fill:#f1c40f;stroke:white;stroke-width:2" />
<rect x="1126" y="648" width="25" height="18" style="fill:#9b59b6;stroke:white;stroke-width:2" />
<rect x="1151" y="631" width="24" height="18" style="fill:#3498db;stroke:white;stroke-width:2" />
<rect x="1151" y="649" width="24" height="17" style="fill:#34495e;stroke:white;stroke-width:2" />
<rect x="1126" y="666" width="16" height="24" style="fill:#34495e;stroke:white;stroke-width:2" />
<rect x="1142" y="666" width="16" height="24" style="fill:#3498db;stroke:white;stroke-width:2" />
<rect x="1158" y="666" width="17" height="24" style="fill:#e74c3c;stroke:white;stroke-width:2" />
<rect x="1126" y="690" width="24" height="14" style="fill:#1abc9c;stroke:white;stroke-width:2" />
<rect x="1126" y="704" width="24" height="15" style="fill:#e67e22;stroke:white;stroke-width:2" />
<rect x="1150" y="690" width="25" height="14" style="fill:#8e44ad;stroke:white;stroke-width:2" />
<rect x="1150" y="704" width="25" height="15" style="fill:#e74c3c;stroke:white;stroke-width:2" />
<rect x="1126" y="719" width="24" height="14" style="fill:#34495e;stroke:white;stroke-width:2" />
<rect x="1126" y="733" width="24" height="14" style="fill:#c0392b;stroke:white;stroke-width:2" />
<rect x="1150" y="719" width="25" height="14" style="fill:#8e44ad;stroke:white;stroke-width:2" />
<rect x="1150" y="733" width="25" height="14" style="fill:#16a085;stroke:white;stroke-width:2" />
<rect x="1126" y="747" width="14" height="21" style="fill:#27ae60;stroke:white;stroke-width:2" />
<rect x="1140" y="747" width="14" height="21" style="fill:#9b59b6;stroke:white;stroke-width:2" />
<rect x="1126" y="768" width="14" height="22" style="fill:#3498db;stroke:white;stroke-width:2" />
<rect x="1140" y="768" width="14" height="22" style="fill:#9b59b6;stroke:white;stroke-width:2" />
<rect x="1154" y="747" width="21" height="14" style="fill:#3498db;stroke:white;stroke-width:2" />
<rect x="1154" y="761" width="21" height="14" style="fill:#e74c3c;stroke:white;stroke-width:2" />
<rect x="1154" y="775" width="21" height="15" style="fill:#d35400;stroke:white;stroke-width:2" />
<rect x="1175" y="50" width="15" height="19" style="fill:#f39c12;stroke:white;stroke-width:2" />
<rect x="1175" y="69" width="15" height="19" style="fill:#2ecc71;stroke:white;stroke-width:2" />
<rect x="1175" y="88" width="15" height="18" style="fill:#f39c12;stroke:white;stroke-width:2" />
<rect x="1175" y="106" width="15" height="19" style="fill:#8e44ad;stroke:white;stroke-width:2" />
<rect x="1175" y="125" width="15" height="18" style="fill:#2ecc71;stroke:white;stroke-width:2" />
<rect x="1175" y="143" width="15" height="18" style="fill:#2980b9;stroke:white;stroke-width:2" />
<rect x="1175" y="161" width="15" height="18" style="fill:#34495e;stroke:white;stroke-width:2" />
<rect x="1175" y="179" width="15" height="19" style="fill:#f1c40f;stroke:white;stroke-width:2" />
<rect x="1175" y="198" width="15" height="17" style="fill:#34495e;stroke:white;stroke-width:2" />
<rect x="1175" y="215" width="15" height="17" style="fill:#f39c12;stroke:white;stroke-width:2" />
<rect x="1175" y="232" width="15" height="16" style="fill:#9b59b6;stroke:white;stroke-width:2" />
<rect x="1175" y="248" width="15" height="17" style="fill:#c0392b;stroke:white;stroke-width:2" />
<rect x="1175" y="265" width="15" height="16" style="fill:#8e44ad;stroke:white;stroke-width:2" />
<rect x="1175" y="281" width="15" height="16" style="fill:#f1c40f;stroke:white;stroke-width:2" />
<rect x="1175" y="297" width="15" height="14" style="fill:#9b59b6;stroke:white;stroke-width:2" />
<rect x="1175" y="311" width="15" height="13" style="fill:#2ecc71;stroke:white;stroke-width:2" />
<rect x="1175" y="324" width="15" height="12" style="fill:#34495e;stroke:white;stroke-width:2" />
<rect x="1175" y="336" width="15" height="12" style="fill:#16a085;stroke:white;stroke-width:2" />
<rect x="1175" y="348" width="15" height="12" style="fill:#e74c3c;stroke:white;stroke-width:2" />
<rect x="1175" y="360" width="15" height="12" style="fill:#f39c12;stroke:white;stroke-width:2" />
<rect x="1175" y="372" width="15" height="11" style="fill:#d35400;stroke:white;stroke-width:2" />
<rect x="1175" y="383" width="15" height="12" style="fill:#d35400;stroke:white;stroke-width:2" />
<rect x="1175" y="395" width="15" height="11" style="fill:#c0392b;stroke:white;stroke-width:2" />
<rect x="1175" y="406" width="15" height="12" style="fill:#e74c3c;stroke:white;stroke-width:2" />
<rect x="1175" y="418" width="15" height="10" style="fill:#2ecc71;stroke:white;stroke-width:2" />
<rect x="1175" y="428" width="15" height="11" style="fill:#2ecc71;stroke:white;stroke-width:2" />
<rect x="1175" y="439" width="15" height="10" style="fill:#f1c40f;stroke:white;stroke-width:2" />
<rect x="1175" y="449" width="15" height="11" style="fill:#3498db;stroke:white;stroke-width:2" />
<rect x="1175" y="460" width="15" height="9" style="fill:#c0392b;stroke:white;stroke-width:2" />
<rect x="1175" y="469" width="15" height="10" style="fill:#9b59b6;stroke:white;stroke-width:2" />
<rect x="1175" y="479" width="15" height="10" style="fill:#c0392b;stroke:white;stroke-width:2" />
<rect x="1175" y="489" width="15" height="8" style="fill:#f1c40f;stroke:white;stroke-width:2" />
<rect x="1175" y="497" width="15" height="9" style="fill:#e67e22;stroke:white;stroke-width:2" />
<rect x="1175" y="506" width="15" height="8" style="fill:#d35400;stroke:white;stroke-width:2" />
<rect x="1175" y="514" width="15" height="9" style="fill:#2ecc71;stroke:white;stroke-width:2" />
<rect x="1175" y="523" width="15" height="8" style="fill:#e67e22;stroke:white;stroke-width:2" />
<rect x="1175" y="531" width="15" height="8" style="fill:#2980b9;stroke:white;stroke-width:2" />
<rect x="1175" y="539" width="15" height="8" style="fill:#8e44ad;stroke:white;stroke-width:2" />
<rect x="1175" y="547" width="15" height="9" style="fill:#27ae60;stroke:white;stroke-width:2" />
<rect x="1175" y="556" width="7" height="15" style="fill:#f39c12;stroke:white;stroke-width:2" />
<rect x="1182" y="556" width="8" height="15" style="fill:#c0392b;stroke:white;stroke-width:2" />
<rect x="1175" y="571" width="15" height="8" style="fill:#16a085;stroke:white;stroke-width:2" />
<rect x="1175" y="579" width="15" height="8" style="fill:#2ecc71;stroke:white;stroke-width:2" />
<rect x="1175" y="587" width="7" height="14" style="fill:#e74c3c;stroke:white;stroke-width:2" />
<rect x="1182" y="587" width="8" height="14" style="fill:#16a085;stroke:white;stroke-width:2" />
<rect x="1175" y="601" width="15" height="8" style="fill:#e74c3c;stroke:white;stroke-width:2" />
<rect x="1175" y="609" width="7" height="13" style="fill:#27ae60;stroke:white;stroke-width:2" />
<rect x="1182" y="609" width="8" height="13" style="fill:#1abc9c;stroke:white;stroke-width:2" />
<rect x="1175" y="622" width="7" height="13" style="fill:#d35400;stroke:white;stroke-width:2" />
<rect x="1182" y="622" width="8" height="13" style="fill:#2980b9;stroke:white;stroke-width:2" />
<rect x="1175" y="635" width="7" height="12" style="fill:#c0392b;stroke:white;stroke-width:2" />
<rect x="1182" y="635" width="8" height="12" style="fill:#c0392b;stroke:white;stroke-width:2" />
<rect x="1175" y="647" width="7" height="12" style="fill:#34495e;stroke:white;stroke-width:2" />
<rect x="1182" y="647" width="8" height="12" style="fill:#2980b9;stroke:white;stroke-width:2" />
<rect x="1175" y="659" width="7" height="10" style="fill:#2980b9;stroke:white;stroke-width:2" />
<rect x="1182" y="659" width="8" height="10" style="fill:#e74c3c;stroke:white;stroke-width:2" />
<rect x="1175" y="669" width="7" height="11" style="fill:#1abc9c;stroke:white;stroke-width:2" />
<rect x="1182" y="669" width="8" height="11" style="fill:#3498db;stroke:white;stroke-width:2" />
<rect x="1175" y="680" width="10" height="7" style="fill:#d35400;stroke:white;stroke-width:2" />
<rect x="1175" y="687" width="10" height="8" style="fill:#c0392b;stroke:white;stroke-width:2" />
<rect x="1185" y="680" width="5" height="15" style="fill:#c0392b;stroke:white;stroke-width:2" />
<rect x="1175" y="695" width="7" height="7" style="fill:#27ae60;stroke:white;stroke-width:2" />
<rect x="1175" y="702" width="7" height="8" style="fill:#f1c40f;stroke:white;stroke-width:2" />
<rect x="1182" y="695" width="8" height="7" style="fill:#27ae60;stroke:white;stroke-width:2" />
<rect x="1182" y="702" width="8" height="8" style="fill:#27ae60;stroke:white;stroke-width:2" />
<rect x="1175" y="710" width="7" height="7" style="fill:#f1c40f;stroke:white;stroke-width:2" />
<rect x="1175" y="717" width="7" height="8" style="fill:#f1c40f;stroke:white;stroke-width:2" />
<rect x="1182" y="710" width="8" height="7" style="fill:#e67e22;stroke:white;stroke-width:2" />
<rect x="1182" y="717" width="8" height="8" style="fill:#e67e22;stroke:white;stroke-width:2" />
<rect x="1175" y="725" width="7" height="6" style="fill:#9b59b6;stroke:white;stroke-width:2" />
<rect x="1175" y="731" width="7" height="6" style="fill:#e74c3c;stroke:white;stroke-width:2" />
<rect x="1182" y="725" width="8" height="6" style="fill:#9b59b6;stroke:white;stroke-width:2" />
<rect x="1182" y="731" width="8" height="6" style="fill:#1abc9c;stroke:white;stroke-width:2" />
<rect x="1175" y="737" width="5" height="9" style="fill:#16a085;stroke:white;stroke-width:2" />
<rect x="1180" y="737" width="5" height="9" style="fill:#e67e22;stroke:white;stroke-width:2" />
<rect x="1185" y="737" width="5" height="9" style="fill:#2ecc71;stroke:white;stroke-width:2" />
<rect x="1175" y="746" width="7" height="4" style="fill:#16a085;stroke:white;stroke-width:2" />
<rect x="1175" y="750" width="7" height="5" style="fill:#d35400;stroke:white;stroke-width:2" />
<rect x="1182" y="746" width="8" height="4" style="fill:#3498db;stroke:white;stroke-width:2" />
<rect x="1182" y="750" width="8" height="5" style="fill:#8e44ad;stroke:white;stroke-width:2" />
<rect x="1175" y="755" width="7" height="4" style="fill:#9b59b6;stroke:white;stroke-width:2" />
<rect x="1175" y="759" width="7" height="4" style="fill:#1abc9c;stroke:white;stroke-width:2" />
<rect x="1182" y="755" width="4" height="8" style="fill:#16a085;stroke:white;stroke-width:2" />
<rect x="1186" y="755" width="4" height="8" style="fill:#f1c40f;stroke:white;stroke-width:2" />
<rect x="1175" y="763" width="4" height="5" style="fill:#9b59b6;stroke:white;stroke-width:2" />
<rect x="1179" y="763" width="5" height="5" style="fill:#3498db;stroke:white;stroke-width:2" />
<rect x="1175" y="768" width="4" height="6" style="fill:#3498db;stroke:white;stroke-width:2" />
<rect x="1179" y="768" width="5" height="6" style="fill:#e74c3c;stroke:white;stroke-width:2" />
<rect x="1184" y="763" width="6" height="3" style="fill:#2980b9;stroke:white;stroke-width:2" />
<rect x="1184" y="766" width="6" height="4" style="fill:#1abc9c;stroke:white;stroke-width:2" />
<rect x="1184" y="770" width="6" height="4" style="fill:#34495e;stroke:white;stroke-width:2" />
<rect x="1175" y="774" width="5" height="3" style="fill:#8e44ad;stroke:white;stroke-width:2" />
<rect x="1175" y="777" width="5" height="3" style="fill:#f1c40f;stroke:white;stroke-width:2" />
<rect x="1180" y="774" width="5" height="3" style="fill:#9b59b6;stroke:white;stroke-width:2" />
<rect x="1180" y="777" width="5" height="3" style="fill:#d35400;stroke:white;stroke-width:2" />
<rect x="1175" y="780" width="5" height="3" style="fill:#f39c12;stroke:white;stroke-width:2" />
<rect x="1175" y="783" width="5" height="3" style="fill:#d35400;stroke:white;stroke-width:2" />
<rect x="1180" y="780" width="5" height="3" style="fill:#3498db;stroke:white;stroke-width:2" />
<rect x="1180" y="783" width="5" height="3" style="fill:#f1c40f;stroke:white;stroke-width:2" />
<rect x="1187" y="774" width="3" height="4" style="fill:#16a085;stroke:white;stroke-width:2" />
<rect x="1187" y="778" width="3" height="4" style="fill:#27ae60;stroke:white;stroke-width:2" />
</svg>
